<svg width="382" height="382" viewBox="0 0 382 382" fill="none" xmlns="http://www.w3.org/2000/svg">
<path d="M103.295 56.7054V7.97723H39.6332V56.7054C39.6332 56.7054 0.00372314 128.177 0.00372314 142.47C0.00372314 156.762 0.00372314 335.051 0.00372314 335.051C0.00372314 338.991 3.19775 342.197 7.14981 342.197H136.087C140.04 342.197 143.24 338.991 143.24 335.051C143.24 335.051 143.24 156.762 143.24 142.47C143.24 128.177 103.295 56.7054 103.295 56.7054Z" fill="#E5E8EC"/>
<path d="M142.925 167.125H0.00372314V278.536H142.925V167.125Z" fill="#4FC0E8"/>
<g opacity="0.05">
<path d="M15.9164 335.051C15.9164 335.051 15.9164 156.762 15.9164 142.47C15.9164 128.177 55.5459 56.7054 55.5459 56.7054V7.97723H39.6332V56.7054C39.6332 56.7054 0.00372314 128.177 0.00372314 142.47C0.00372314 156.762 0.00372314 335.051 0.00372314 335.051C0.00372314 338.991 3.19775 342.197 7.14981 342.197H23.0625C19.1164 342.197 15.9164 338.991 15.9164 335.051Z" fill="black"/>
</g>
<path d="M39.6332 47.7642C39.6855 47.7642 39.7384 47.7642 39.7907 47.7642C44.1859 47.7642 47.747 44.209 47.747 39.8138C47.747 35.4186 44.1859 31.8515 39.7907 31.8515C39.7384 31.8515 39.6855 31.8634 39.6332 31.8634V47.7642Z" fill="#CBD0D8"/>
<path d="M103.295 47.7642V31.8515C98.9 31.8515 95.3389 35.4186 95.3389 39.8138C95.3389 44.209 98.9 47.7642 103.295 47.7642Z" fill="#CBD0D8"/>
<path d="M95.3389 231.02C95.3389 244.205 84.6488 254.895 71.4639 254.895C58.2796 254.895 47.5896 244.205 47.5896 231.02C47.5896 217.835 68.4623 190.778 71.4639 190.778C74.4654 190.778 95.3389 217.835 95.3389 231.02Z" fill="#E5E8EC"/>
<path d="M381.961 127.338C381.961 122.944 378.405 119.388 373.999 119.388C370.968 119.388 368.333 121.078 366.992 123.584L311.293 227.021L325.306 234.564L380.994 131.162C381.6 130.031 381.961 128.726 381.961 127.338Z" fill="#E5E8EC"/>
<path d="M175.064 230.787C175.064 243.971 164.38 254.661 151.195 254.661C138.01 254.661 127.32 243.971 127.32 230.787C127.32 217.602 138.01 206.913 151.195 206.913C164.38 206.913 175.064 217.602 175.064 230.787Z" fill="#FB6D51"/>
<path d="M183.026 238.748C196.211 238.748 206.9 228.06 206.9 214.874C206.9 201.689 196.211 191 183.026 191C169.84 191 159.151 201.689 159.151 214.874C159.151 228.06 169.84 238.748 183.026 238.748Z" fill="#AC92EA"/>
<path d="M238.726 230.787C238.726 243.971 228.036 254.661 214.851 254.661C201.666 254.661 190.983 243.971 190.983 230.787C190.983 217.602 201.666 206.913 214.851 206.913C228.036 206.913 238.726 217.602 238.726 230.787Z" fill="#9ED36A"/>
<path d="M270.551 214.874C270.551 228.059 259.873 238.748 246.677 238.748C233.503 238.748 222.813 228.059 222.813 214.874C222.813 201.69 233.503 191 246.677 191C259.873 191 270.551 201.69 270.551 214.874Z" fill="#FECD57"/>
<path d="M302.387 230.787C302.387 243.971 291.697 254.661 278.512 254.661C265.328 254.661 254.651 243.971 254.651 230.787C254.651 217.602 265.329 206.913 278.512 206.913C291.697 206.913 302.387 217.602 302.387 230.787Z" fill="#ED5564"/>
<path d="M334.225 214.874C334.225 228.059 323.523 238.748 310.35 238.748C297.153 238.748 286.475 228.059 286.475 214.874C286.475 201.69 297.153 191 310.35 191C323.523 191 334.225 201.69 334.225 214.874Z" fill="#4FC0E8"/>
<path d="M342.174 254.661C355.36 254.661 366.049 243.972 366.049 230.787C366.049 217.602 355.36 206.913 342.174 206.913C328.989 206.913 318.3 217.602 318.3 230.787C318.3 243.972 328.989 254.661 342.174 254.661Z" fill="#AC92EA"/>
<path d="M112.318 230.787V252.831C112.318 307.027 145.582 353.61 193.18 374.023H301.129C348.726 353.611 381.997 307.027 381.997 252.831V230.787H112.318Z" fill="#46CEAD"/>
<path d="M380.784 270.574C381.507 265.363 381.903 260.047 381.973 254.661H112.335C112.411 260.047 112.813 265.363 113.524 270.574H380.784Z" fill="#35BB9B"/>
<path d="M103.447 7.97723H39.7907C35.3954 7.97723 31.8284 11.5443 31.8284 15.9388C31.8284 20.3333 35.3954 23.8892 39.7907 23.8892H103.447C107.841 23.8892 111.408 20.3333 111.408 15.9388C111.408 11.5443 107.841 7.97723 103.447 7.97723Z" fill="#CBD0D8"/>
<g opacity="0.2">
<path d="M366.072 230.787V252.831C366.072 307.027 332.814 353.61 285.215 374.023H301.128C348.726 353.611 381.996 307.027 381.996 252.831V230.787H366.072Z" fill="white"/>
</g>
</svg>
