<svg width="93" height="93" viewBox="0 0 93 93" fill="none" xmlns="http://www.w3.org/2000/svg">
<path d="M39.547 6.7263C43.4238 2.97596 49.5762 2.97595 53.4529 6.72629L54.4821 7.72189C56.699 9.8665 59.7815 10.8681 62.8355 10.4361L64.2533 10.2356C69.5941 9.48014 74.5715 13.0965 75.5034 18.4092L75.7508 19.8196C76.2838 22.8577 78.1889 25.4798 80.9136 26.9255L82.1785 27.5966C86.9432 30.1247 88.8444 35.976 86.4756 40.8219L85.8468 42.1083C84.4922 44.8794 84.4922 48.1206 85.8468 50.8917L86.4756 52.1781C88.8444 57.024 86.9432 62.8753 82.1785 65.4034L80.9136 66.0745C78.1889 67.5202 76.2838 70.1423 75.7508 73.1804L75.5035 74.5908C74.5715 79.9035 69.5941 83.5199 64.2533 82.7645L62.8355 82.5639C59.7815 82.1319 56.699 83.1335 54.4821 85.2781L53.453 86.2737C49.5762 90.024 43.4238 90.024 39.5471 86.2737L38.5179 85.2781C36.301 83.1335 33.2185 82.1319 30.1645 82.5639L28.7467 82.7645C23.4059 83.5199 18.4285 79.9035 17.4965 74.5908L17.2491 73.1804C16.7162 70.1423 14.8111 67.5202 12.0864 66.0745L10.8215 65.4034C6.05679 62.8753 4.15556 57.024 6.52438 52.1781L7.15322 50.8917C8.50782 48.1206 8.50782 44.8794 7.15322 42.1083L6.52438 40.8219C4.15556 35.976 6.05678 30.1247 10.8215 27.5966L12.0864 26.9255C14.8111 25.4798 16.7162 22.8577 17.2491 19.8196L17.4965 18.4092C18.4285 13.0965 23.4059 9.48014 28.7467 10.2356L30.1645 10.4361C33.2185 10.8681 36.301 9.8665 38.5179 7.72189L39.547 6.7263Z" fill="#F6B82F"/>
<path d="M59.25 34.75L34.75 59.25" stroke="white" stroke-width="2" stroke-linecap="round" stroke-linejoin="round"/>
<path d="M37.375 41.75C39.7912 41.75 41.75 39.7912 41.75 37.375C41.75 34.9588 39.7912 33 37.375 33C34.9588 33 33 34.9588 33 37.375C33 39.7912 34.9588 41.75 37.375 41.75Z" stroke="white" stroke-width="2" stroke-linecap="round" stroke-linejoin="round"/>
<path d="M56.625 61C59.0412 61 61 59.0412 61 56.625C61 54.2088 59.0412 52.25 56.625 52.25C54.2088 52.25 52.25 54.2088 52.25 56.625C52.25 59.0412 54.2088 61 56.625 61Z" stroke="white" stroke-width="2" stroke-linecap="round" stroke-linejoin="round"/>
</svg>
