<svg width="40" height="42" viewBox="0 0 40 42" fill="none" xmlns="http://www.w3.org/2000/svg">
<path d="M19.9988 20.4687C21.9665 20.4691 23.8535 19.7012 25.2448 18.3347C26.6365 16.9678 27.418 15.114 27.4185 13.1812C27.4185 11.248 26.6369 9.39411 25.2455 8.02681C23.8546 6.65993 21.9677 5.89197 20 5.89197C18.0323 5.89197 16.1453 6.65946 14.754 8.0264C13.3627 9.39328 12.5811 11.2471 12.5811 13.1803C12.5831 15.1124 13.3655 16.965 14.756 18.3315C16.1465 19.6976 18.0321 20.4663 19.9987 20.4687H19.9988ZM19.9988 7.69866C21.4792 7.69826 22.8987 8.2759 23.9454 9.30423C24.992 10.3321 25.5799 11.7269 25.5804 13.1812C25.5804 14.6351 24.9924 16.0298 23.9458 17.0581C22.8992 18.0864 21.4796 18.664 19.9997 18.664C18.5193 18.6636 17.0998 18.0859 16.0535 17.0577C15.0069 16.0294 14.419 14.6347 14.4193 13.1803C14.4213 11.7272 15.0097 10.3341 16.0555 9.30619C17.1017 8.2787 18.5197 7.70062 19.9988 7.69866Z" fill="#3A3E3F"/>
<path d="M19.9995 20.4687C16.0225 20.4731 12.2101 22.0271 9.39833 24.7899C6.58623 27.5524 5.00452 31.2982 5 35.2051V36.108H35V35.2051C34.9955 31.2979 33.4135 27.5519 30.6013 24.7899C27.7892 22.0271 23.9767 20.4732 19.9995 20.4687ZM6.35719 36.108C6.6686 31.7118 9.74998 25.9691 13.6851 23.8545C17.6202 21.7402 22.3804 21.7402 26.3155 23.8545C30.2506 25.9691 33.4323 31.7118 33.7433 36.108H20H6.35719Z" fill="#3A3E3F"/>
</svg>
