<svg width="37" height="36" viewBox="0 0 37 36" fill="none" xmlns="http://www.w3.org/2000/svg">
<g id="Cart">
<path id="Vector" d="M9.44838 26.8761L9.482 26.8761L30.8336 26.8836H30.8336C31.9956 26.8836 32.9777 25.9127 33.2008 24.6184L36.1149 7.69769L35.9671 7.67224L36.1149 7.69767C36.2184 7.09653 36.0908 6.47725 35.7585 5.99748C35.4268 5.51654 34.9268 5.23152 34.3843 5.23152H8.76554L8.58606 4.19709C8.20613 1.98712 6.53572 0.35 4.5817 0.35H1.64816C1.18523 0.35 0.85 0.784713 0.85 1.26562C0.85 1.74653 1.18523 2.18125 1.64816 2.18125H4.5817C5.74145 2.18125 6.78037 3.1609 7.02137 4.5526L10.5522 25.0445H9.48195C7.63181 25.0445 6.16752 26.8128 6.16752 28.9324C6.16752 31.0519 7.63181 32.8203 9.48195 32.8203H11.3204C11.6674 34.4269 12.9076 35.65 14.4158 35.65C15.9241 35.65 17.1643 34.4269 17.5113 32.8203H26.4665C26.8134 34.4269 28.0537 35.65 29.5619 35.65C31.0702 35.65 32.3104 34.4269 32.6574 32.8203H34.5971C35.06 32.8203 35.3952 32.3855 35.3952 31.9046C35.3952 31.4237 35.06 30.989 34.5971 30.989H32.6591C32.3145 29.3792 31.0732 28.1531 29.5622 28.1531C28.0513 28.1531 26.8099 29.3792 26.4653 30.989H17.5129C17.1682 29.3792 15.9254 28.1531 14.416 28.1531C12.9061 28.1531 11.6648 29.3793 11.3192 30.989L9.48154 30.9887C8.55611 30.9887 7.7634 30.091 7.7634 28.932C7.7634 27.7873 8.53854 26.8972 9.44838 26.8761ZM31.6351 24.2629L31.635 24.2631C31.5534 24.7404 31.2031 25.054 30.8353 25.054C30.8353 25.054 30.8353 25.054 30.8352 25.054L12.1805 25.0466L9.08054 7.06353H34.3816C34.4565 7.0683 34.4957 7.0962 34.5181 7.12919C34.5438 7.16705 34.5632 7.2354 34.5487 7.34399L31.6351 24.2629ZM29.5629 29.9867C30.4221 29.9867 31.1629 30.8215 31.1629 31.9039C31.1629 32.9864 30.4235 33.8211 29.5629 33.8211C28.7023 33.8211 27.9629 32.9864 27.9629 31.9039C27.9629 30.8215 28.7037 29.9867 29.5629 29.9867ZM14.4167 29.9867C15.2772 29.9867 16.0167 30.8214 16.0167 31.9039C16.0167 32.9864 15.2772 33.8211 14.4167 33.8211C13.5574 33.8211 12.8166 32.9863 12.8166 31.9039C12.8166 30.8214 13.5561 29.9867 14.4167 29.9867Z" fill="#3A3E3F" stroke="#3A3E3F" stroke-width="0.3"/>
<path id="Vector_2" d="M16.7563 16.8238H27.2447C27.6023 16.8238 27.8928 16.4807 27.8928 16.0582C27.8928 15.6358 27.6023 15.2926 27.2447 15.2926H16.7563C16.3987 15.2926 16.1082 15.6358 16.1082 16.0582C16.1082 16.4807 16.3972 16.8238 16.7563 16.8238Z" fill="#3A3E3F"/>
</g>
</svg>
