<svg width="161" height="62" viewBox="0 0 161 62" fill="none" xmlns="http://www.w3.org/2000/svg">
<path d="M34.216 38.672C33.5573 41.064 32.5 43.04 31.044 44.6C29.588 46.1253 27.8547 47.252 25.844 47.98C23.8333 48.6733 21.6147 49.02 19.188 49.02C15.7213 49.02 12.7227 48.3267 10.192 46.94C7.66133 45.5187 5.72 43.4907 4.368 40.856C3.016 38.2213 2.34 35.0493 2.34 31.34C2.34 27.6307 3.016 24.4587 4.368 21.824C5.72 19.1893 7.66133 17.1787 10.192 15.792C12.7227 14.3707 15.704 13.66 19.136 13.66C21.528 13.66 23.7293 14.0067 25.74 14.7C27.7507 15.3587 29.4493 16.3813 30.836 17.768C32.2227 19.1547 33.2107 20.94 33.8 23.124L25.948 26.296C25.4627 24.1467 24.6653 22.6733 23.556 21.876C22.4813 21.0787 21.112 20.68 19.448 20.68C17.8187 20.68 16.3973 21.0787 15.184 21.876C14.0053 22.6733 13.0867 23.8693 12.428 25.464C11.804 27.024 11.492 28.9827 11.492 31.34C11.492 33.6627 11.7867 35.6213 12.376 37.216C12.9653 38.8107 13.8493 40.0067 15.028 40.804C16.2413 41.6013 17.732 42 19.5 42C21.164 42 22.568 41.5493 23.712 40.648C24.8907 39.712 25.688 38.2907 26.104 36.384L34.216 38.672Z" fill="#EB5461"/>
<path d="M38.318 44.5V25.5H44.018L44.284 29.604C44.7653 28.1853 45.4747 27.0833 46.412 26.298C47.3747 25.5127 48.5907 25.12 50.06 25.12C50.5413 25.12 50.9467 25.158 51.276 25.234C51.6307 25.31 51.9093 25.4113 52.112 25.538L51.466 30.858C51.2127 30.7567 50.8833 30.6807 50.478 30.63C50.098 30.554 49.6293 30.516 49.072 30.516C48.312 30.516 47.6027 30.6807 46.944 31.01C46.2853 31.3393 45.7533 31.8333 45.348 32.492C44.968 33.1253 44.778 33.936 44.778 34.924V44.5H38.318ZM61.0681 44.88C59.7761 44.88 58.6361 44.6647 57.6481 44.234C56.6855 43.778 55.9255 43.056 55.3681 42.068C54.8108 41.08 54.5321 39.788 54.5321 38.192V25.5H60.9921V36.672C60.9921 37.888 61.2328 38.7367 61.7141 39.218C62.1955 39.6993 62.8795 39.94 63.7661 39.94C64.2221 39.94 64.6528 39.864 65.0581 39.712C65.4635 39.5347 65.8181 39.2813 66.1221 38.952C66.4261 38.5973 66.6541 38.154 66.8061 37.622C66.9835 37.0647 67.0721 36.4187 67.0721 35.684V25.5H73.5321V44.5H67.7561L67.5661 40.928C66.9581 42.2707 66.1095 43.2713 65.0201 43.93C63.9308 44.5633 62.6135 44.88 61.0681 44.88ZM78.1735 44.5V25.5H83.9495L84.2915 32.036L83.5695 31.314C83.8228 29.946 84.2661 28.806 84.8995 27.894C85.5581 26.982 86.3688 26.298 87.3315 25.842C88.3195 25.3607 89.4215 25.12 90.6375 25.12C91.9548 25.12 93.0948 25.3733 94.0575 25.88C95.0455 26.3867 95.8181 27.134 96.3755 28.122C96.9328 29.11 97.2115 30.3513 97.2115 31.846V44.5H90.7515V33.556C90.7515 32.2387 90.4981 31.3267 89.9915 30.82C89.4848 30.3133 88.8388 30.06 88.0535 30.06C87.4455 30.06 86.8755 30.212 86.3435 30.516C85.8115 30.7947 85.3935 31.2507 85.0895 31.884C84.7855 32.5173 84.6335 33.366 84.6335 34.43V44.5H78.1735ZM110.744 25.12C112.669 25.12 114.265 25.3987 115.532 25.956C116.824 26.488 117.825 27.21 118.534 28.122C119.269 29.0087 119.725 29.9713 119.902 31.01L113.936 32.986C113.759 31.8967 113.429 31.086 112.948 30.554C112.492 29.9967 111.821 29.718 110.934 29.718C110.123 29.718 109.439 29.908 108.882 30.288C108.35 30.6427 107.945 31.2253 107.666 32.036C107.387 32.8213 107.248 33.8347 107.248 35.076C107.248 36.3173 107.4 37.3307 107.704 38.116C108.008 38.876 108.439 39.4333 108.996 39.788C109.553 40.1173 110.212 40.282 110.972 40.282C111.605 40.282 112.125 40.168 112.53 39.94C112.961 39.6867 113.315 39.332 113.594 38.876C113.873 38.42 114.05 37.8627 114.126 37.204L119.94 39.066C119.763 40.1807 119.281 41.1813 118.496 42.068C117.736 42.9293 116.723 43.6133 115.456 44.12C114.189 44.6267 112.707 44.88 111.01 44.88C108.933 44.88 107.121 44.5 105.576 43.74C104.031 42.9547 102.84 41.8273 102.004 40.358C101.168 38.8633 100.75 37.0773 100.75 35C100.75 32.9227 101.168 31.1493 102.004 29.68C102.84 28.1853 104.005 27.058 105.5 26.298C107.02 25.5127 108.768 25.12 110.744 25.12ZM123.298 44.5V17.444H129.758V28.958C130.316 27.6913 131.114 26.7413 132.152 26.108C133.191 25.4493 134.394 25.12 135.762 25.12C137.08 25.12 138.22 25.3733 139.182 25.88C140.17 26.3867 140.943 27.134 141.5 28.122C142.058 29.11 142.336 30.3513 142.336 31.846V44.5H135.876V33.632C135.876 32.264 135.623 31.3267 135.116 30.82C134.635 30.288 133.989 30.022 133.178 30.022C132.57 30.022 132 30.174 131.468 30.478C130.936 30.782 130.518 31.2633 130.214 31.922C129.91 32.5807 129.758 33.442 129.758 34.506V44.5H123.298Z" fill="#EB5461"/>
<path d="M157.428 14.18V25.256L156.44 37.32H149.212L148.224 25.256V14.18H157.428ZM152.8 40.232C154.395 40.232 155.625 40.6133 156.492 41.376C157.393 42.1387 157.844 43.2133 157.844 44.6C157.844 45.952 157.393 47.0093 156.492 47.772C155.625 48.5347 154.395 48.916 152.8 48.916C151.275 48.916 150.061 48.5347 149.16 47.772C148.259 47.0093 147.808 45.952 147.808 44.6C147.808 43.2133 148.259 42.1387 149.16 41.376C150.061 40.6133 151.275 40.232 152.8 40.232Z" fill="#EB5461"/>
</svg>
